<svg height="201px" width="201px" version="1.1" id="Layer_1" xmlns="http://www.w3.org/2000/svg" xmlns:xlink="http://www.w3.org/1999/xlink" viewBox="0 0 504 504" xml:space="preserve" fill="#000000"><g id="SVGRepo_bgCarrier" stroke-width="0"></g><g id="SVGRepo_tracerCarrier" stroke-linecap="round" stroke-linejoin="round"></g><g id="SVGRepo_iconCarrier"> <circle style="fill:#324A5E;" cx="252" cy="252" r="252"></circle> <g> <polygon style="fill:#FFD05B;" points="181.2,198.4 130,198.4 115.6,283.2 181.2,283.2 "></polygon> <polygon style="fill:#FFD05B;" points="171.2,299.2 171.2,354 274.8,354 274.8,198.4 196.8,198.4 196.8,299.2 "></polygon> <polygon style="fill:#FFD05B;" points="386.8,274.8 374,198.4 290.8,198.4 290.8,274.8 "></polygon> <polygon style="fill:#FFD05B;" points="113.2,299.2 94.4,409.6 155.6,409.6 155.6,299.2 "></polygon> <polygon style="fill:#FFD05B;" points="337.2,409.6 409.6,409.6 389.6,290.4 337.2,290.4 "></polygon> <polygon style="fill:#FFD05B;" points="290.8,290.4 290.8,369.6 171.2,369.6 171.2,409.6 321.6,409.6 321.6,290.4 "></polygon> </g> <polygon style="fill:#F9B54C;" points="290.8,274.8 290.8,198.4 274.8,198.4 274.8,354 171.2,354 171.2,299.2 196.8,299.2 196.8,198.4 181.2,198.4 181.2,283.2 115.6,283.2 113.2,299.2 155.6,299.2 155.6,409.6 171.2,409.6 171.2,369.6 290.8,369.6 290.8,290.4 321.6,290.4 321.6,409.6 337.2,409.6 337.2,290.4 389.6,290.4 386.8,274.8 "></polygon> <path style="fill:#F1543F;" d="M344.4,186.4C344.4,237.2,252,354,252,354s-92.4-116.8-92.4-167.6s41.2-92,92.4-92 C302.8,94.4,344.4,135.6,344.4,186.4z"></path> <circle style="fill:#FFFFFF;" cx="252" cy="187.2" r="56.4"></circle> </g></svg>